<mxfile host="app.diagrams.net" modified="2021-02-04T07:18:22.023Z" agent="5.0 (Windows NT 10.0; Win64; x64) AppleWebKit/537.36 (KHTML, like Gecko) Chrome/88.0.4324.104 Safari/537.36" etag="Hum2bLxnFIDAmP-YMEIC" version="14.1.9" type="github">
  <diagram id="ANAJGK0_yAK0nldCu1QN" name="第 1 页">
    <mxGraphModel dx="2249" dy="762" grid="1" gridSize="10" guides="1" tooltips="1" connect="1" arrows="1" fold="1" page="1" pageScale="1" pageWidth="827" pageHeight="1169" math="0" shadow="0">
      <root>
        <mxCell id="0" />
        <mxCell id="1" parent="0" />
        <mxCell id="zY-LlmFLDYL1xvEGEtav-1" value="数据结构-redis-hash&lt;br&gt;key-hyt:station&lt;br&gt;hkey-siteId&lt;br&gt;hvalue-infomd5" style="rounded=0;whiteSpace=wrap;html=1;" vertex="1" parent="1">
          <mxGeometry x="100" y="110" width="120" height="60" as="geometry" />
        </mxCell>
        <mxCell id="zY-LlmFLDYL1xvEGEtav-2" value="third-modle" style="rounded=1;whiteSpace=wrap;html=1;" vertex="1" parent="1">
          <mxGeometry x="130" y="340" width="120" height="60" as="geometry" />
        </mxCell>
        <mxCell id="zY-LlmFLDYL1xvEGEtav-3" value="third-api" style="rounded=1;whiteSpace=wrap;html=1;" vertex="1" parent="1">
          <mxGeometry x="-170" y="340" width="120" height="60" as="geometry" />
        </mxCell>
        <mxCell id="zY-LlmFLDYL1xvEGEtav-4" value="redis" style="rounded=1;whiteSpace=wrap;html=1;" vertex="1" parent="1">
          <mxGeometry x="1000" y="350" width="120" height="60" as="geometry" />
        </mxCell>
        <mxCell id="zY-LlmFLDYL1xvEGEtav-5" value="" style="endArrow=none;html=1;entryX=0.5;entryY=1;entryDx=0;entryDy=0;" edge="1" parent="1" target="zY-LlmFLDYL1xvEGEtav-3">
          <mxGeometry width="50" height="50" relative="1" as="geometry">
            <mxPoint x="-110" y="840" as="sourcePoint" />
            <mxPoint x="170" y="540" as="targetPoint" />
            <Array as="points">
              <mxPoint x="-110" y="580" />
            </Array>
          </mxGeometry>
        </mxCell>
        <mxCell id="zY-LlmFLDYL1xvEGEtav-6" value="" style="endArrow=classic;html=1;" edge="1" parent="1">
          <mxGeometry width="50" height="50" relative="1" as="geometry">
            <mxPoint x="-110" y="440" as="sourcePoint" />
            <mxPoint x="190" y="440" as="targetPoint" />
          </mxGeometry>
        </mxCell>
        <mxCell id="zY-LlmFLDYL1xvEGEtav-7" value="拆解任务task，多线程执行查询" style="edgeLabel;html=1;align=center;verticalAlign=middle;resizable=0;points=[];" vertex="1" connectable="0" parent="zY-LlmFLDYL1xvEGEtav-6">
          <mxGeometry x="-0.1185" y="-3" relative="1" as="geometry">
            <mxPoint as="offset" />
          </mxGeometry>
        </mxCell>
        <mxCell id="zY-LlmFLDYL1xvEGEtav-8" value="" style="endArrow=none;html=1;entryX=0.5;entryY=1;entryDx=0;entryDy=0;" edge="1" parent="1" target="zY-LlmFLDYL1xvEGEtav-2">
          <mxGeometry width="50" height="50" relative="1" as="geometry">
            <mxPoint x="190" y="840" as="sourcePoint" />
            <mxPoint x="189.5" y="410" as="targetPoint" />
            <Array as="points">
              <mxPoint x="189.5" y="590" />
            </Array>
          </mxGeometry>
        </mxCell>
        <mxCell id="zY-LlmFLDYL1xvEGEtav-9" value="" style="endArrow=classic;html=1;" edge="1" parent="1">
          <mxGeometry width="50" height="50" relative="1" as="geometry">
            <mxPoint x="190" y="480" as="sourcePoint" />
            <mxPoint x="1060" y="480" as="targetPoint" />
          </mxGeometry>
        </mxCell>
        <mxCell id="zY-LlmFLDYL1xvEGEtav-12" value="据每个任务返回站点信息查询缓存中相关数据" style="edgeLabel;html=1;align=center;verticalAlign=middle;resizable=0;points=[];" vertex="1" connectable="0" parent="zY-LlmFLDYL1xvEGEtav-9">
          <mxGeometry x="-0.1417" y="2" relative="1" as="geometry">
            <mxPoint as="offset" />
          </mxGeometry>
        </mxCell>
        <mxCell id="zY-LlmFLDYL1xvEGEtav-11" value="" style="endArrow=none;html=1;entryX=0.5;entryY=1;entryDx=0;entryDy=0;" edge="1" parent="1" target="zY-LlmFLDYL1xvEGEtav-4">
          <mxGeometry width="50" height="50" relative="1" as="geometry">
            <mxPoint x="1060" y="840" as="sourcePoint" />
            <mxPoint x="1070.5" y="420" as="targetPoint" />
            <Array as="points">
              <mxPoint x="1060" y="600" />
            </Array>
          </mxGeometry>
        </mxCell>
        <mxCell id="zY-LlmFLDYL1xvEGEtav-13" value="" style="endArrow=classic;html=1;" edge="1" parent="1">
          <mxGeometry width="50" height="50" relative="1" as="geometry">
            <mxPoint x="1060" y="550" as="sourcePoint" />
            <mxPoint x="190" y="550" as="targetPoint" />
          </mxGeometry>
        </mxCell>
        <mxCell id="zY-LlmFLDYL1xvEGEtav-14" value="据返回信息和MD5签名清洗出修改集合，新增集合" style="edgeLabel;html=1;align=center;verticalAlign=middle;resizable=0;points=[];" vertex="1" connectable="0" parent="zY-LlmFLDYL1xvEGEtav-13">
          <mxGeometry x="0.2256" y="-1" relative="1" as="geometry">
            <mxPoint as="offset" />
          </mxGeometry>
        </mxCell>
        <mxCell id="zY-LlmFLDYL1xvEGEtav-15" value="" style="endArrow=classic;html=1;" edge="1" parent="1">
          <mxGeometry width="50" height="50" relative="1" as="geometry">
            <mxPoint x="190" y="620" as="sourcePoint" />
            <mxPoint x="1060" y="620" as="targetPoint" />
          </mxGeometry>
        </mxCell>
        <mxCell id="zY-LlmFLDYL1xvEGEtav-17" value="多线程将自己获取得到的修改集合、新增集合添加到redis，设置过期时间3h" style="edgeLabel;html=1;align=center;verticalAlign=middle;resizable=0;points=[];" vertex="1" connectable="0" parent="zY-LlmFLDYL1xvEGEtav-15">
          <mxGeometry x="-0.0769" y="-1" relative="1" as="geometry">
            <mxPoint as="offset" />
          </mxGeometry>
        </mxCell>
        <mxCell id="zY-LlmFLDYL1xvEGEtav-18" value="1点开始处理数据定时器" style="text;html=1;strokeColor=none;fillColor=none;align=center;verticalAlign=middle;whiteSpace=wrap;rounded=0;" vertex="1" parent="1">
          <mxGeometry x="520" y="410" width="160" height="20" as="geometry" />
        </mxCell>
        <mxCell id="zY-LlmFLDYL1xvEGEtav-19" value="2.30开始处理同步数据定时器" style="text;html=1;strokeColor=none;fillColor=none;align=center;verticalAlign=middle;whiteSpace=wrap;rounded=0;" vertex="1" parent="1">
          <mxGeometry x="530" y="670" width="160" height="20" as="geometry" />
        </mxCell>
        <mxCell id="zY-LlmFLDYL1xvEGEtav-20" value="" style="endArrow=classic;html=1;" edge="1" parent="1">
          <mxGeometry width="50" height="50" relative="1" as="geometry">
            <mxPoint x="1060" y="760" as="sourcePoint" />
            <mxPoint x="190" y="760" as="targetPoint" />
          </mxGeometry>
        </mxCell>
        <mxCell id="zY-LlmFLDYL1xvEGEtav-22" value="获取redis缓存数据，若两种集合都为空/缓存集合不存在，退出，存在执行对应的批量入库操作，并将对应的集合填充进站点对比缓存集合" style="edgeLabel;html=1;align=center;verticalAlign=middle;resizable=0;points=[];" vertex="1" connectable="0" parent="zY-LlmFLDYL1xvEGEtav-20">
          <mxGeometry x="0.0483" y="-2" relative="1" as="geometry">
            <mxPoint as="offset" />
          </mxGeometry>
        </mxCell>
      </root>
    </mxGraphModel>
  </diagram>
</mxfile>
